<svg width="139" height="54" viewBox="0 0 139 54" fill="none" xmlns="http://www.w3.org/2000/svg">
<rect width="139" height="54" rx="19" fill="#070707"/>
<path d="M30.52 39.48C28.3067 39.48 26.16 39.1867 24.08 38.6C22.0267 37.9867 20.3733 37.2 19.12 36.24L21.32 31.36C22.52 32.24 23.9467 32.9467 25.6 33.48C27.2533 34.0133 28.9067 34.28 30.56 34.28C32.4 34.28 33.76 34.0133 34.64 33.48C35.52 32.92 35.96 32.1867 35.96 31.28C35.96 30.6133 35.6933 30.0667 35.16 29.64C34.6533 29.1867 33.9867 28.8267 33.16 28.56C32.36 28.2933 31.2667 28 29.88 27.68C27.7467 27.1733 26 26.6667 24.64 26.16C23.28 25.6533 22.1067 24.84 21.12 23.72C20.16 22.6 19.68 21.1067 19.68 19.24C19.68 17.6133 20.12 16.1467 21 14.84C21.88 13.5067 23.2 12.4533 24.96 11.68C26.7467 10.9067 28.92 10.52 31.48 10.52C33.2667 10.52 35.0133 10.7333 36.72 11.16C38.4267 11.5867 39.92 12.2 41.2 13L39.2 17.92C36.6133 16.4533 34.0267 15.72 31.44 15.72C29.6267 15.72 28.28 16.0133 27.4 16.6C26.5467 17.1867 26.12 17.96 26.12 18.92C26.12 19.88 26.6133 20.6 27.6 21.08C28.6133 21.5333 30.1467 21.9867 32.2 22.44C34.3333 22.9467 36.08 23.4533 37.44 23.96C38.8 24.4667 39.96 25.2667 40.92 26.36C41.9067 27.4533 42.4 28.9333 42.4 30.8C42.4 32.4 41.9467 33.8667 41.04 35.2C40.16 36.5067 38.8267 37.5467 37.04 38.32C35.2533 39.0933 33.08 39.48 30.52 39.48ZM60.2678 37.96C59.6545 38.4133 58.8945 38.76 57.9878 39C57.1078 39.2133 56.1745 39.32 55.1878 39.32C52.6278 39.32 50.6411 38.6667 49.2278 37.36C47.8411 36.0533 47.1478 34.1333 47.1478 31.6V22.76H43.8278V17.96H47.1478V12.72H53.3878V17.96H58.7478V22.76H53.3878V31.52C53.3878 32.4267 53.6145 33.1333 54.0678 33.64C54.5478 34.12 55.2145 34.36 56.0678 34.36C57.0545 34.36 57.8945 34.0933 58.5878 33.56L60.2678 37.96ZM84.1866 28.32C84.1866 28.4 84.1466 28.96 84.0666 30H67.7866C68.0799 31.3333 68.7732 32.3867 69.8666 33.16C70.9599 33.9333 72.3199 34.32 73.9466 34.32C75.0666 34.32 76.0532 34.16 76.9066 33.84C77.7866 33.4933 78.5999 32.96 79.3466 32.24L82.6666 35.84C80.6399 38.16 77.6799 39.32 73.7866 39.32C71.3599 39.32 69.2132 38.8533 67.3466 37.92C65.4799 36.96 64.0399 35.64 63.0266 33.96C62.0132 32.28 61.5066 30.3733 61.5066 28.24C61.5066 26.1333 61.9999 24.24 62.9866 22.56C63.9999 20.8533 65.3732 19.5333 67.1066 18.6C68.8666 17.64 70.8266 17.16 72.9866 17.16C75.0932 17.16 76.9999 17.6133 78.7066 18.52C80.4132 19.4267 81.7466 20.7333 82.7066 22.44C83.6932 24.12 84.1866 26.08 84.1866 28.32ZM73.0266 21.88C71.6132 21.88 70.4266 22.28 69.4666 23.08C68.5066 23.88 67.9199 24.9733 67.7066 26.36H78.3066C78.0932 25 77.5066 23.92 76.5466 23.12C75.5866 22.2933 74.4132 21.88 73.0266 21.88ZM101.061 17.16C103.061 17.16 104.874 17.6267 106.501 18.56C108.154 19.4667 109.448 20.76 110.381 22.44C111.314 24.0933 111.781 26.0267 111.781 28.24C111.781 30.4533 111.314 32.4 110.381 34.08C109.448 35.7333 108.154 37.0267 106.501 37.96C104.874 38.8667 103.061 39.32 101.061 39.32C98.3143 39.32 96.1543 38.4533 94.5809 36.72V46.76H88.3409V17.48H94.3009V19.96C95.8476 18.0933 98.1009 17.16 101.061 17.16ZM99.9809 34.2C101.581 34.2 102.888 33.6667 103.901 32.6C104.941 31.5067 105.461 30.0533 105.461 28.24C105.461 26.4267 104.941 24.9867 103.901 23.92C102.888 22.8267 101.581 22.28 99.9809 22.28C98.3809 22.28 97.0609 22.8267 96.0209 23.92C95.0076 24.9867 94.5009 26.4267 94.5009 28.24C94.5009 30.0533 95.0076 31.5067 96.0209 32.6C97.0609 33.6667 98.3809 34.2 99.9809 34.2Z" fill="#40BAFF"/>
</svg>
